<svg id="visual" viewBox="0 0 1320 628" width="1320" height="628" xmlns="http://www.w3.org/2000/svg" xmlns:xlink="http://www.w3.org/1999/xlink" version="1.1"><rect x="0" y="0" width="1320" height="628" fill="#297810"></rect><path d="M0 463L24.5 481.3C49 499.7 98 536.3 146.8 555.5C195.7 574.7 244.3 576.3 293.2 577.5C342 578.7 391 579.3 440 583.3C489 587.3 538 594.7 586.8 578.3C635.7 562 684.3 522 733.2 507.8C782 493.7 831 505.3 880 523.7C929 542 978 567 1026.8 580.7C1075.7 594.3 1124.3 596.7 1173.2 594.3C1222 592 1271 585 1295.5 581.5L1320 578L1320 629L1295.5 629C1271 629 1222 629 1173.2 629C1124.3 629 1075.7 629 1026.8 629C978 629 929 629 880 629C831 629 782 629 733.2 629C684.3 629 635.7 629 586.8 629C538 629 489 629 440 629C391 629 342 629 293.2 629C244.3 629 195.7 629 146.8 629C98 629 49 629 24.5 629L0 629Z" fill="#f7f9fa" stroke-linecap="round" stroke-linejoin="miter"></path></svg>